<svg width="60" height="60" viewBox="0 0 60 60" fill="none" xmlns="http://www.w3.org/2000/svg">
<rect width="60" height="60" rx="13" fill="black"/>
<path d="M51.4522 21.5862C53.0033 20.5982 53.4654 18.5432 52.4867 16.9862C52.0491 16.2122 51.3395 15.6285 50.4957 15.3485C49.6636 15.0654 48.7503 15.151 47.9853 15.5839C47.4622 15.92 47.0015 16.3444 46.6237 16.8382C46.3527 17.1791 46.046 17.4899 45.7087 17.7653C42.5247 13.6626 37.8637 10.9663 32.7198 10.2516C32.7865 9.82161 32.8997 9.40017 33.0574 8.99467C33.2939 8.42559 33.4307 7.82003 33.4617 7.20453C33.3215 5.39601 31.8131 4 29.9991 4C28.1852 4 26.6768 5.39601 26.5366 7.20453C26.5675 7.82003 26.7043 8.42559 26.9408 8.99467C27.0986 9.40017 27.2118 9.82161 27.2784 10.2516C22.1368 10.9663 17.4776 13.6608 14.2938 17.761C13.955 17.4882 13.6467 17.1794 13.3745 16.8399C12.997 16.3464 12.5366 15.9223 12.0138 15.5865C11.2492 15.1527 10.3355 15.0667 9.5034 15.3502C8.66009 15.6299 7.95081 16.213 7.5133 16.9862C6.53404 18.5452 6.99824 20.6024 8.55207 21.5897C9.10071 21.8707 9.69371 22.0549 10.305 22.1342C10.7357 22.2014 11.1579 22.3145 11.5645 22.4718C9.60237 27.2798 9.60237 32.6653 11.5645 37.4733C11.1579 37.6306 10.7357 37.7437 10.305 37.8109C9.6927 37.8904 9.09878 38.0752 8.54947 38.3571C6.99828 39.3439 6.53467 41.3979 7.51157 42.9554C7.94909 43.7294 8.6587 44.3131 9.50254 44.5932C9.82836 44.7 10.169 44.755 10.5119 44.7559C11.0382 44.7573 11.5556 44.6199 12.012 44.3577C12.5351 44.0216 12.9959 43.5972 13.3737 43.1034C13.6449 42.7625 13.952 42.4517 14.2895 42.1763C17.4735 46.2791 22.1345 48.9754 27.2784 49.69C27.2118 50.12 27.0986 50.5415 26.9408 50.947C26.7043 51.516 26.5675 52.1216 26.5366 52.7371C26.6768 54.5456 28.1852 55.9416 29.9991 55.9416C31.8131 55.9416 33.3215 54.5456 33.4617 52.7371C33.4307 52.1216 33.2939 51.516 33.0574 50.947C32.8997 50.5415 32.7865 50.12 32.7198 49.69C37.863 48.9764 42.524 46.2818 45.7087 42.1806C46.0476 42.4534 46.3559 42.7623 46.628 43.1017C47.0056 43.5952 47.466 44.0193 47.9888 44.3551C48.4453 44.6179 48.9631 44.7555 49.4898 44.7542C49.8327 44.7532 50.1733 44.6983 50.4992 44.5914C51.3409 44.3108 52.0485 43.7278 52.4849 42.9554C53.4642 41.3965 53 39.3393 51.4462 38.3519C50.8975 38.071 50.3045 37.8868 49.6932 37.8074C49.2626 37.7403 48.8403 37.6271 48.4337 37.4698C50.3959 32.6618 50.3959 27.2764 48.4337 22.4683C48.8403 22.3111 49.2626 22.1979 49.6932 22.1307C50.3066 22.0522 50.9017 21.8679 51.4522 21.5862ZM29.9991 5.73295C30.8812 5.66848 31.6519 6.32357 31.7304 7.20453C31.6919 7.62198 31.5885 8.03087 31.424 8.41642C31.2203 8.95401 31.0786 9.51308 31.0015 10.0828C30.6691 10.0683 30.335 10.0611 29.9991 10.0611C29.6632 10.0611 29.3291 10.0695 28.9967 10.0862C28.9199 9.51536 28.7782 8.95513 28.5743 8.41642C28.4097 8.03087 28.3063 7.62198 28.2678 7.20453C28.3463 6.32357 29.117 5.66848 29.9991 5.73295ZM10.6201 20.4306C10.2039 20.3795 9.79814 20.2647 9.41684 20.0904C8.69372 19.5795 8.51415 18.583 9.01345 17.8519C9.2367 17.4505 9.60102 17.1464 10.0358 16.9984C10.4026 16.8685 10.8075 16.9019 11.1481 17.0901C11.4951 17.3334 11.8016 17.6299 12.0562 17.9687C12.4214 18.4137 12.8362 18.8156 13.2923 19.1668C12.9283 19.7282 12.5926 20.3074 12.2864 20.9024C11.7508 20.6821 11.1917 20.5238 10.6201 20.4306ZM12.0562 41.9746C11.8013 42.3137 11.4946 42.6105 11.1473 42.8541C10.806 43.04 10.4017 43.0715 10.0358 42.9407C9.60089 42.7935 9.23601 42.4903 9.01172 42.0897C8.51309 41.3598 8.69228 40.3648 9.41424 39.8547C9.79619 39.6793 10.2029 39.564 10.6201 39.5127C11.1905 39.4193 11.7484 39.261 12.283 39.041C12.5903 39.6354 12.9271 40.2141 13.2923 40.7748C12.8361 41.1266 12.4213 41.5291 12.0562 41.9746ZM29.9991 54.2087C29.117 54.2731 28.3463 53.6181 28.2678 52.7371C28.3063 52.3196 28.4097 51.9108 28.5743 51.5252C28.778 50.9876 28.9197 50.4285 28.9967 49.8588C29.3291 49.8733 29.6632 49.8805 29.9991 49.8805C30.335 49.8805 30.6691 49.8721 31.0015 49.8554C31.0786 50.4251 31.2203 50.9841 31.424 51.5217C31.5889 51.9084 31.6923 52.3185 31.7304 52.7371C31.6519 53.6181 30.8812 54.2731 29.9991 54.2087ZM29.9991 48.1492C19.9595 48.1492 11.8207 40.0105 11.8207 29.9708C11.8207 19.9312 19.9595 11.7924 29.9991 11.7924C40.0388 11.7924 48.1775 19.9312 48.1775 29.9708C48.1661 40.0057 40.034 48.1378 29.9991 48.1492ZM49.3782 39.511C49.7943 39.5621 50.2001 39.6769 50.5814 39.8512C51.3045 40.3621 51.4841 41.3586 50.9848 42.0897C50.7615 42.4911 50.3972 42.7953 49.9625 42.9433C49.5957 43.0736 49.1906 43.0402 48.8501 42.8515C48.5031 42.6082 48.1966 42.3117 47.9421 41.9729C47.5766 41.5282 47.1619 41.1263 46.7059 40.7748C47.07 40.2134 47.4057 39.6342 47.7118 39.0392C48.2475 39.2595 48.8065 39.4178 49.3782 39.511ZM47.7153 20.8998C47.4079 20.3057 47.0711 19.7273 46.7059 19.1668C47.1608 18.8146 47.5743 18.4121 47.9386 17.967C48.1935 17.6279 48.5002 17.3311 48.8475 17.0875C49.1881 16.9002 49.5925 16.8671 49.959 16.9966C50.3949 17.1453 50.7599 17.4507 50.9831 17.8536C51.4817 18.5836 51.3025 19.5786 50.5805 20.0887C50.1986 20.2641 49.7918 20.3794 49.3747 20.4306C48.8054 20.5243 48.2487 20.6826 47.7153 20.9024V20.8998Z" fill="#DBA622"/>
<path d="M43.5169 35.7793L43.5212 35.7672C45.1129 32.0669 45.1129 27.8749 43.5212 24.1745L43.5169 24.1624C43.066 23.1288 42.4975 22.1506 41.8229 21.247C41.8158 21.2214 41.8074 21.1963 41.7978 21.1716C41.7443 21.0823 41.6748 21.0036 41.5926 20.9397C38.8149 17.3569 34.5364 15.2603 30.003 15.2603C25.4696 15.2603 21.1911 17.3569 18.4134 20.9397C18.3312 21.0045 18.2614 21.0837 18.2074 21.1734C18.1977 21.198 18.1893 21.2232 18.1823 21.2487C17.5076 22.1523 16.9392 23.1306 16.4882 24.1642L16.4839 24.1763C14.8922 27.8766 14.8922 32.0686 16.4839 35.7689L16.4882 35.781V35.7871C16.9391 36.82 17.5072 37.7977 18.1814 38.7008C18.1885 38.7263 18.1969 38.7515 18.2065 38.7761C18.2599 38.864 18.3285 38.9417 18.4091 39.0055C20.7889 42.0621 24.279 44.0558 28.1207 44.5534C28.1687 44.5676 28.218 44.5774 28.2678 44.5828C28.2748 44.5828 28.2808 44.5785 28.2877 44.5785C29.4241 44.7227 30.5741 44.7227 31.7105 44.5785C31.7174 44.5785 31.7235 44.5828 31.7304 44.5828C31.7802 44.5774 31.8295 44.5676 31.8775 44.5534C35.7205 44.0561 39.2116 42.0616 41.5917 39.0038C41.6723 38.94 41.7409 38.8623 41.7943 38.7744C41.804 38.7497 41.8123 38.7246 41.8194 38.6991C42.4936 37.7959 43.0617 36.8183 43.5126 35.7853L43.5169 35.7793ZM40.7841 22.7497C41.1011 23.2298 41.386 23.7304 41.6368 24.2481L35.6214 27.7202C35.4057 27.1834 35.1142 26.6803 34.7558 26.2261L40.7841 22.7497ZM32.596 17.246C35.3498 17.8149 37.8443 19.2631 39.7038 21.3725L33.4383 24.9865C33.171 24.8033 32.8893 24.6421 32.596 24.5044V17.246ZM29.1335 17.0287C29.4209 17.0097 29.7065 16.9846 29.9991 16.9846C30.2917 16.9846 30.5774 17.0097 30.8647 17.0287V23.9806C30.2914 23.8883 29.7069 23.8883 29.1335 23.9806V17.0287ZM27.4022 17.246V24.5026C27.1088 24.6409 26.8271 24.8027 26.5599 24.9865L20.2944 21.3725C22.1539 19.2631 24.6484 17.8149 27.4022 17.246ZM19.2141 22.748L25.2433 26.2261C24.8849 26.6803 24.5934 27.1834 24.3777 27.7202L18.3623 24.2464C18.6129 23.7292 18.8975 23.2292 19.2141 22.7497V22.748ZM17.6915 34.0792C16.7881 31.4124 16.7881 28.5224 17.6915 25.8556L23.9647 29.4783C23.9518 29.6393 23.9396 29.8012 23.9396 29.9657C23.9396 30.1301 23.9518 30.292 23.9647 30.453L17.6915 34.0792ZM19.2141 37.1903C18.8971 36.7102 18.6123 36.2096 18.3615 35.6919L24.3768 32.2215C24.5925 32.7583 24.884 33.2615 25.2424 33.7156L19.2141 37.1903ZM27.4022 42.6957C24.6484 42.1268 22.1539 40.6786 20.2944 38.5692L26.5599 34.9552C26.8271 35.139 27.1088 35.3008 27.4022 35.4391V42.6957ZM30.8647 42.913C30.5774 42.9321 30.2917 42.9572 29.9991 42.9572C29.7065 42.9572 29.4209 42.9321 29.1335 42.913V35.9611C29.7069 36.0534 30.2914 36.0534 30.8647 35.9611V42.913ZM29.9991 34.299C27.6087 34.299 25.6709 32.3613 25.6709 29.9709C25.6709 27.5805 27.6087 25.6427 29.9991 25.6427C32.3895 25.6427 34.3273 27.5805 34.3273 29.9709C34.3244 32.3601 32.3883 34.2962 29.9991 34.299ZM32.596 42.6957V35.4374C32.8894 35.2991 33.1711 35.1373 33.4383 34.9535L39.7038 38.5675C37.8445 40.6775 35.3501 42.1263 32.596 42.6957ZM40.7841 37.1937L34.7549 33.7156C35.1133 33.2615 35.4048 32.7583 35.6206 32.2215L41.6359 35.6953C41.3853 36.2125 41.1008 36.7125 40.7841 37.192V37.1937ZM42.3068 34.0826L36.0335 30.4599C36.0465 30.2989 36.0586 30.1371 36.0586 29.9726C36.0586 29.8081 36.0465 29.6462 36.0335 29.4852L42.3068 25.8625C43.2101 28.5293 43.2101 31.4193 42.3068 34.0861V34.0826Z" fill="#DBA622"/>
<path d="M29.9991 27.3739C28.5649 27.3739 27.4022 28.5366 27.4022 29.9708C27.4022 31.4051 28.5649 32.5677 29.9991 32.5677C31.4334 32.5677 32.5961 31.4051 32.5961 29.9708C32.5961 28.5366 31.4334 27.3739 29.9991 27.3739ZM29.9991 30.8365C29.5211 30.8365 29.1335 30.4489 29.1335 29.9708C29.1335 29.4927 29.5211 29.1052 29.9991 29.1052C30.4772 29.1052 30.8648 29.4927 30.8648 29.9708C30.8648 30.4489 30.4772 30.8365 29.9991 30.8365Z" fill="#DBA622"/>
<path d="M29.9991 14.3894C30.4772 14.3894 30.8648 14.0018 30.8648 13.5237C30.8648 13.0456 30.4772 12.6581 29.9991 12.6581C29.521 12.6581 29.1335 13.0456 29.1335 13.5237C29.1335 14.0018 29.521 14.3894 29.9991 14.3894Z" fill="#DBA622"/>
<path d="M22.2084 16.4763C22.5116 16.3011 22.6793 15.9605 22.6334 15.6134C22.5875 15.2663 22.337 14.981 21.9987 14.8906C21.6604 14.8002 21.301 14.9225 21.088 15.2005C20.8751 15.4784 20.8506 15.8573 21.0259 16.1604C21.2653 16.5741 21.7946 16.7155 22.2084 16.4763Z" fill="#DBA622"/>
<path d="M15.3231 22.4969C15.6263 22.672 16.0051 22.6472 16.2829 22.434C16.5606 22.2209 16.6827 21.8614 16.5921 21.5232C16.5015 21.185 16.216 20.9347 15.8689 20.889C15.5218 20.8433 15.1813 21.0112 15.0063 21.3144C14.7672 21.7285 14.9091 22.2579 15.3231 22.4969Z" fill="#DBA622"/>
<path d="M13.552 30.8365C14.0301 30.8365 14.4176 30.4489 14.4176 29.9709C14.4176 29.4928 14.0301 29.1052 13.552 29.1052C13.0739 29.1052 12.6864 29.4928 12.6864 29.9709C12.6864 30.4489 13.0739 30.8365 13.552 30.8365Z" fill="#DBA622"/>
<path d="M15.3231 37.4447C15.0199 37.6198 14.852 37.9603 14.8977 38.3074C14.9434 38.6545 15.1937 38.9399 15.5319 39.0305C15.8701 39.1212 16.2295 38.9991 16.4427 38.7213C16.6558 38.4436 16.6806 38.0648 16.5055 37.7616C16.2665 37.3475 15.7371 37.2057 15.3231 37.4447Z" fill="#DBA622"/>
<path d="M22.2083 43.4644C21.9051 43.2893 21.5263 43.3141 21.2486 43.5273C20.9708 43.7404 20.8487 44.0999 20.9394 44.4381C21.03 44.7763 21.3154 45.0266 21.6625 45.0723C22.0096 45.118 22.3501 44.9501 22.5252 44.6468C22.7642 44.2328 22.6224 43.7034 22.2083 43.4644Z" fill="#DBA622"/>
<path d="M29.9991 47.2835C30.4772 47.2835 30.8648 46.896 30.8648 46.4179C30.8648 45.9398 30.4772 45.5522 29.9991 45.5522C29.521 45.5522 29.1335 45.9398 29.1335 46.4179C29.1335 46.896 29.521 47.2835 29.9991 47.2835Z" fill="#DBA622"/>
<path d="M37.7899 43.4644C37.4867 43.6394 37.3188 43.9799 37.3645 44.327C37.4102 44.6742 37.6605 44.9596 37.9987 45.0502C38.3369 45.1408 38.6964 45.0188 38.9095 44.741C39.1226 44.4632 39.1474 44.0844 38.9724 43.7812C38.7333 43.3672 38.2039 43.2254 37.7899 43.4644Z" fill="#DBA622"/>
<path d="M44.6751 37.4447C44.3719 37.2697 43.9931 37.2945 43.7153 37.5076C43.4376 37.7207 43.3155 38.0802 43.4062 38.4184C43.4968 38.7566 43.7822 39.0069 44.1293 39.0526C44.4764 39.0983 44.8169 38.9304 44.992 38.6272C45.231 38.2132 45.0891 37.6838 44.6751 37.4447Z" fill="#DBA622"/>
<path d="M46.4462 30.8365C46.9243 30.8365 47.3119 30.4489 47.3119 29.9709C47.3119 29.4928 46.9243 29.1052 46.4462 29.1052C45.9682 29.1052 45.5806 29.4928 45.5806 29.9709C45.5806 30.4489 45.9682 30.8365 46.4462 30.8365Z" fill="#DBA622"/>
<path d="M43.8095 20.9976C43.5063 21.1726 43.3384 21.5131 43.3841 21.8602C43.4298 22.2074 43.6801 22.4928 44.0183 22.5834C44.3565 22.674 44.716 22.552 44.9291 22.2742C45.1422 21.9964 45.1671 21.6176 44.992 21.3144C44.7529 20.9004 44.2235 20.7586 43.8095 20.9976Z" fill="#DBA622"/>
<path d="M37.7899 16.4764C38.0931 16.6517 38.472 16.627 38.7499 16.4138C39.0278 16.2007 39.1499 15.8411 39.0592 15.5028C38.9685 15.1645 38.6829 14.9142 38.3356 14.8687C37.9884 14.8232 37.6479 14.9914 37.473 15.2948C37.2346 15.7087 37.3764 16.2374 37.7899 16.4764Z" fill="#DBA622"/>
</svg>
